<mxfile host="Electron" agent="Mozilla/5.0 (Windows NT 10.0; Win64; x64) AppleWebKit/537.36 (KHTML, like Gecko) draw.io/27.0.9 Chrome/134.0.6998.205 Electron/35.4.0 Safari/537.36" version="27.0.9">
  <diagram name="Seite-1" id="vGBwzLZIg6hZzlx329QO">
    <mxGraphModel dx="752" dy="569" grid="1" gridSize="5" guides="1" tooltips="1" connect="1" arrows="1" fold="1" page="1" pageScale="1" pageWidth="827" pageHeight="1169" math="0" shadow="0">
      <root>
        <mxCell id="0" />
        <mxCell id="1" parent="0" />
        <mxCell id="GxNOZXjlHH1W95P_12yy-43" value="" style="group" parent="1" vertex="1" connectable="0">
          <mxGeometry y="295" width="240" height="100" as="geometry" />
        </mxCell>
        <mxCell id="GxNOZXjlHH1W95P_12yy-18" value="" style="rounded=0;whiteSpace=wrap;html=1;fillColor=#D8E4FC;" parent="GxNOZXjlHH1W95P_12yy-43" vertex="1">
          <mxGeometry width="240" height="50" as="geometry" />
        </mxCell>
        <mxCell id="GxNOZXjlHH1W95P_12yy-19" value="&lt;font style=&quot;font-size: 13px;&quot; face=&quot;Times New Roman&quot;&gt;&lt;b style=&quot;&quot;&gt;&amp;lt;&amp;lt;SubmodelEllementCollection&amp;gt;&amp;gt;&lt;/b&gt;&lt;/font&gt;" style="text;html=1;align=center;verticalAlign=middle;whiteSpace=wrap;rounded=0;" parent="GxNOZXjlHH1W95P_12yy-43" vertex="1">
          <mxGeometry x="31" width="178" height="30" as="geometry" />
        </mxCell>
        <mxCell id="GxNOZXjlHH1W95P_12yy-20" value="" style="rounded=0;whiteSpace=wrap;html=1;fillColor=#F2F5FD;" parent="GxNOZXjlHH1W95P_12yy-43" vertex="1">
          <mxGeometry y="50" width="240" height="50" as="geometry" />
        </mxCell>
        <mxCell id="GxNOZXjlHH1W95P_12yy-21" value="&lt;font face=&quot;Times New Roman&quot; style=&quot;color: rgb(51, 51, 51);&quot;&gt;+ Name:&lt;/font&gt;&lt;font face=&quot;Times New Roman&quot; style=&quot;color: rgb(102, 102, 102);&quot;&gt; MultiLanguageProperty [string]&lt;/font&gt;" style="text;html=1;align=left;verticalAlign=middle;whiteSpace=wrap;rounded=0;" parent="GxNOZXjlHH1W95P_12yy-43" vertex="1">
          <mxGeometry x="5" y="54.5" width="205" height="12.5" as="geometry" />
        </mxCell>
        <mxCell id="GxNOZXjlHH1W95P_12yy-22" value="&lt;font style=&quot;color: rgb(51, 51, 51);&quot; face=&quot;Times New Roman&quot;&gt;+ Description:&lt;/font&gt;&lt;font style=&quot;color: rgb(102, 102, 102);&quot; face=&quot;Times New Roman&quot;&gt; MultiLanguageProperty [string]&lt;/font&gt;" style="text;html=1;align=left;verticalAlign=middle;whiteSpace=wrap;rounded=0;" parent="GxNOZXjlHH1W95P_12yy-43" vertex="1">
          <mxGeometry x="5" y="67" width="235" height="13.5" as="geometry" />
        </mxCell>
        <mxCell id="GxNOZXjlHH1W95P_12yy-23" value="&lt;font style=&quot;color: rgb(51, 51, 51);&quot; face=&quot;Times New Roman&quot;&gt;+ Record:&lt;/font&gt;&lt;font style=&quot;color: rgb(102, 102, 102);&quot; face=&quot;Times New Roman&quot;&gt; SubmodelElementCollection&lt;/font&gt;" style="text;html=1;align=left;verticalAlign=middle;whiteSpace=wrap;rounded=0;" parent="GxNOZXjlHH1W95P_12yy-43" vertex="1">
          <mxGeometry x="5" y="80.5" width="205" height="13.5" as="geometry" />
        </mxCell>
        <mxCell id="GxNOZXjlHH1W95P_12yy-32" value="&lt;b&gt;&lt;font style=&quot;font-size: 13px;&quot; face=&quot;Times New Roman&quot;&gt;Metada&lt;/font&gt;&lt;/b&gt;" style="text;html=1;align=center;verticalAlign=middle;whiteSpace=wrap;rounded=0;" parent="GxNOZXjlHH1W95P_12yy-43" vertex="1">
          <mxGeometry x="31" y="20" width="178" height="30" as="geometry" />
        </mxCell>
        <mxCell id="GxNOZXjlHH1W95P_12yy-46" value="" style="endArrow=none;html=1;rounded=0;startArrow=diamondThin;startFill=1;exitX=1;exitY=1;exitDx=0;exitDy=0;strokeWidth=1;endSize=8;startSize=8;strokeColor=#000000;" parent="1" source="GxNOZXjlHH1W95P_12yy-18" edge="1">
          <mxGeometry width="50" height="50" relative="1" as="geometry">
            <mxPoint x="260" y="340" as="sourcePoint" />
            <mxPoint x="330" y="345" as="targetPoint" />
          </mxGeometry>
        </mxCell>
        <mxCell id="GxNOZXjlHH1W95P_12yy-33" value="" style="rounded=0;whiteSpace=wrap;html=1;fillColor=#D8E4FC;" parent="1" vertex="1">
          <mxGeometry x="330" y="290" width="240" height="50" as="geometry" />
        </mxCell>
        <mxCell id="GxNOZXjlHH1W95P_12yy-34" value="&lt;font style=&quot;font-size: 13px;&quot; face=&quot;Times New Roman&quot;&gt;&lt;b style=&quot;&quot;&gt;&amp;lt;&amp;lt;SubmodelEllementCollection&amp;gt;&amp;gt;&lt;/b&gt;&lt;/font&gt;" style="text;html=1;align=center;verticalAlign=middle;whiteSpace=wrap;rounded=0;" parent="1" vertex="1">
          <mxGeometry x="361" y="290" width="178" height="30" as="geometry" />
        </mxCell>
        <mxCell id="GxNOZXjlHH1W95P_12yy-35" value="" style="rounded=0;whiteSpace=wrap;html=1;fillColor=#F2F5FD;" parent="1" vertex="1">
          <mxGeometry x="330" y="340" width="240" height="60" as="geometry" />
        </mxCell>
        <mxCell id="GxNOZXjlHH1W95P_12yy-36" value="&lt;font face=&quot;Times New Roman&quot; style=&quot;color: rgb(51, 51, 51);&quot;&gt;+ Time:&lt;/font&gt;&lt;font face=&quot;Times New Roman&quot; style=&quot;color: rgb(102, 102, 102);&quot;&gt; Property [long]&lt;/font&gt;" style="text;html=1;align=left;verticalAlign=middle;whiteSpace=wrap;rounded=0;" parent="1" vertex="1">
          <mxGeometry x="335" y="344.5" width="205" height="12.5" as="geometry" />
        </mxCell>
        <mxCell id="GxNOZXjlHH1W95P_12yy-37" value="&lt;font style=&quot;color: rgb(51, 51, 51);&quot; face=&quot;Times New Roman&quot;&gt;+ SampleAccelerationX:&lt;/font&gt;&lt;font style=&quot;color: rgb(102, 102, 102);&quot; face=&quot;Times New Roman&quot;&gt;&amp;nbsp;Property [long]&lt;/font&gt;" style="text;html=1;align=left;verticalAlign=middle;whiteSpace=wrap;rounded=0;" parent="1" vertex="1">
          <mxGeometry x="335" y="357" width="230" height="13.5" as="geometry" />
        </mxCell>
        <mxCell id="GxNOZXjlHH1W95P_12yy-39" value="&lt;b&gt;&lt;font style=&quot;font-size: 13px;&quot; face=&quot;Times New Roman&quot;&gt;Record&lt;/font&gt;&lt;/b&gt;" style="text;html=1;align=center;verticalAlign=middle;whiteSpace=wrap;rounded=0;" parent="1" vertex="1">
          <mxGeometry x="361" y="310" width="178" height="30" as="geometry" />
        </mxCell>
        <mxCell id="GxNOZXjlHH1W95P_12yy-40" value="&lt;font style=&quot;color: rgb(51, 51, 51);&quot; face=&quot;Times New Roman&quot;&gt;+ SampleAccelerationY:&lt;/font&gt;&lt;font style=&quot;color: rgb(102, 102, 102);&quot; face=&quot;Times New Roman&quot;&gt;&amp;nbsp;Property [long]&lt;/font&gt;" style="text;html=1;align=left;verticalAlign=middle;whiteSpace=wrap;rounded=0;" parent="1" vertex="1">
          <mxGeometry x="335" y="370.5" width="225" height="13.5" as="geometry" />
        </mxCell>
        <mxCell id="GxNOZXjlHH1W95P_12yy-41" value="&lt;font style=&quot;color: rgb(51, 51, 51);&quot; face=&quot;Times New Roman&quot;&gt;+ SampleAccelerationZ:&lt;/font&gt;&lt;font style=&quot;color: rgb(102, 102, 102);&quot; face=&quot;Times New Roman&quot;&gt;&amp;nbsp;Property [long]&lt;/font&gt;" style="text;html=1;align=left;verticalAlign=middle;whiteSpace=wrap;rounded=0;" parent="1" vertex="1">
          <mxGeometry x="335" y="384" width="210" height="13.5" as="geometry" />
        </mxCell>
      </root>
    </mxGraphModel>
  </diagram>
</mxfile>
